HIERARCHY
ROOT Hips
{
	OFFSET 51.931000 -24.428915 93.979294
	CHANNELS 6 Xposition Yposition Zposition Xrotation Yrotation Zrotation
	JOINT spine
	{
		OFFSET 0.000000 -0.429888 7.475601
		CHANNELS 3 Xrotation Yrotation Zrotation
		JOINT spine1
		{
			OFFSET 0.000000 -0.000002 9.923012
			CHANNELS 3 Xrotation Yrotation Zrotation
			JOINT spine2
			{
				OFFSET 0.000000 0.000000 9.508041
				CHANNELS 3 Xrotation Yrotation Zrotation
				JOINT Neck
				{
					OFFSET 0.000000 -1.163843 24.411110
					CHANNELS 3 Xrotation Yrotation Zrotation
					JOINT Head
					{
						OFFSET 0.000000 -0.000002 7.375229
						CHANNELS 3 Xrotation Yrotation Zrotation
						End Site
						{
							OFFSET 0.000000 5.887405 17.852203
						}
					}
				}
				JOINT RightShoulder
				{
					OFFSET -4.003559 0.557467 10.267906
					CHANNELS 3 Xrotation Yrotation Zrotation
					JOINT RightArm
					{
						OFFSET 0.000000 -0.000002 13.467300
						CHANNELS 3 Xrotation Yrotation Zrotation
						JOINT RightArmRoll
						{
							OFFSET 0.000000 -0.000002 6.798584
							CHANNELS 3 Xrotation Yrotation Zrotation
							JOINT RightForeArm
							{
								OFFSET 0.000000 -0.000004 19.801804
								CHANNELS 3 Xrotation Yrotation Zrotation
								JOINT RightForeArmRoll
								{
									OFFSET 0.000000 0.000000 7.629044
									CHANNELS 3 Xrotation Yrotation Zrotation
									JOINT RightHand
									{
										OFFSET 0.000000 -0.000004 15.309799
										CHANNELS 3 Xrotation Yrotation Zrotation
										End Site
										{
											OFFSET 0.000000 0.000000 0.100006
										}
									}
								}
							}
						}
					}
				}
				JOINT LeftShoulder
				{
					OFFSET 4.003559 0.557467 10.267906
					CHANNELS 3 Xrotation Yrotation Zrotation
					JOINT LeftArm
					{
						OFFSET 0.000000 -0.000002 13.467300
						CHANNELS 3 Xrotation Yrotation Zrotation
						JOINT LeftArmRoll
						{
							OFFSET 0.000000 -0.000002 6.798584
							CHANNELS 3 Xrotation Yrotation Zrotation
							JOINT LeftForeArm
							{
								OFFSET 0.000000 -0.000004 19.801804
								CHANNELS 3 Xrotation Yrotation Zrotation
								JOINT LeftForeArmRoll
								{
									OFFSET 0.000000 0.000000 7.629044
									CHANNELS 3 Xrotation Yrotation Zrotation
									JOINT LeftHand
									{
										OFFSET 0.000000 -0.000004 15.309799
										CHANNELS 3 Xrotation Yrotation Zrotation
										End Site
										{
											OFFSET 0.000000 0.000000 0.100006
										}
									}
								}
							}
						}
					}
				}
			}
		}
	}
	JOINT RightUpLeg
	{
		OFFSET -6.626091 1.019270 -1.215042
		CHANNELS 3 Xrotation Yrotation Zrotation
		JOINT RightUpLegRoll
		{
			OFFSET 0.000000 -0.000002 17.951698
			CHANNELS 3 Xrotation Yrotation Zrotation
			JOINT RightLeg
			{
				OFFSET 0.000000 0.000002 -22.230400
				CHANNELS 3 Xrotation Yrotation Zrotation
				JOINT RightLegRoll
				{
					OFFSET 0.000000 -0.000002 22.303200
					CHANNELS 3 Xrotation Yrotation Zrotation
					JOINT RightFoot
					{
						OFFSET 0.000000 -0.000004 18.563606
						CHANNELS 3 Xrotation Yrotation Zrotation
						JOINT RightToeBase
						{
							OFFSET 0.000000 -0.000002 15.518295
							CHANNELS 3 Xrotation Yrotation Zrotation
							End Site
							{
								OFFSET 0.006577 0.866261 7.515381
							}
						}
					}
				}
			}
		}
	}
	JOINT LeftUpLeg
	{
		OFFSET 6.626091 1.019270 -1.215042
		CHANNELS 3 Xrotation Yrotation Zrotation
		JOINT LeftUpLegRoll
		{
			OFFSET 0.000000 -0.000002 17.951797
			CHANNELS 3 Xrotation Yrotation Zrotation
			JOINT LeftLeg
			{
				OFFSET 0.000000 -0.000004 22.230301
				CHANNELS 3 Xrotation Yrotation Zrotation
				JOINT LeftLegRoll
				{
					OFFSET 0.000000 -0.000004 22.509308
					CHANNELS 3 Xrotation Yrotation Zrotation
					JOINT LeftFoot
					{
						OFFSET 0.000000 -0.000004 18.357498
						CHANNELS 3 Xrotation Yrotation Zrotation
						JOINT LeftToeBase
						{
							OFFSET 0.000000 -0.000002 15.518295
							CHANNELS 3 Xrotation Yrotation Zrotation
							End Site
							{
								OFFSET -0.029476 0.866261 7.515381
							}
						}
					}
				}
			}
		}
	}
}
MOTION
Frames: 4
Frame Time: 0.041667
53.156601 -0.924776 73.475502 10.897240 2.621048 1.490646 1.431771 -0.035272 -0.619204 6.865961 -0.095694 -1.248358 8.510896 -0.110641 -1.247133 -29.108415 -3.362925 -0.430229 13.388996 -0.929970 1.267170 -6.982104 -74.191864 -9.367885 -78.549566 -133.086236 -53.906595 0.000003 -0.000003 -0.000006 0.010168 -0.271586 -1.449393 -0.000007 -0.000017 -3.062700 -5.000126 -8.000097 0.000007 -22.425992 60.275559 26.484511 -60.823784 137.675754 42.521496 0.000000 0.000000 0.000004 -0.028303 -3.627699 0.862371 0.000002 0.000007 3.076399 -5.000144 7.999921 -0.000023 -65.932062 176.841043 7.209668 179.999991 0.000005 -1.807003 105.993662 -0.868185 -4.113036 -0.000006 -0.000007 2.205910 79.104717 8.775437 -5.283587 30.984730 -7.323947 0.674792 -66.861719 179.353446 -2.913811 -0.000005 -0.000004 -1.432531 -75.409482 -2.126242 1.602060 -0.000001 -0.000002 -2.315740 79.986392 -7.282090 0.257475 30.002897 7.334068 -0.580461 
53.150299 -1.042086 73.651489 10.890971 2.625336 1.500369 1.411629 -0.032907 -0.618640 6.825702 -0.091372 -1.248113 8.470633 -0.106316 -1.246937 -29.135688 -3.381359 -0.464869 13.431517 -0.908298 1.235805 -7.023034 -74.256273 -9.416747 -78.576702 -132.974767 -54.041532 0.000004 -0.000003 -0.000006 0.009947 -0.367851 -1.446708 -0.000008 -0.000018 -3.062621 -5.000126 -8.000098 0.000008 -22.437252 60.284308 26.497528 -60.736699 137.681929 42.444920 0.000001 0.000001 0.000003 -0.028150 -3.628491 0.861504 0.000004 0.000007 3.076181 -5.000143 7.999920 -0.000025 -65.638760 176.812902 7.124162 179.999991 0.000005 -1.801007 106.240212 -0.922719 -4.118335 -0.000004 -0.000007 2.191090 79.101275 8.772594 -5.270495 31.025943 -7.323539 0.679781 -66.560542 179.332764 -2.876331 -0.000003 -0.000005 -1.427800 -75.122163 -2.064606 1.630941 -0.000001 -0.000002 -2.302520 80.013576 -7.284140 0.270937 29.982799 7.334261 -0.577834 
53.149300 -1.170984 73.807495 10.884200 2.629481 1.510304 1.391311 -0.030567 -0.618090 6.785098 -0.087084 -1.247869 8.430021 -0.102027 -1.246740 -29.162924 -3.398849 -0.499575 13.475846 -0.887320 1.204138 -7.064070 -74.320060 -9.465676 -78.604412 -132.861072 -54.182023 0.000003 -0.000003 -0.000005 0.009737 -0.468337 -1.443929 -0.000007 -0.000017 -3.062538 -5.000125 -8.000097 0.000009 -22.449413 60.293413 26.511606 -60.648733 137.688650 42.366629 0.000001 0.000001 0.000002 -0.027993 -3.629960 0.860614 0.000003 0.000008 3.075980 -5.000145 7.999921 -0.000023 -65.344071 176.784461 7.039059 179.999991 0.000005 -1.795992 106.489964 -0.977234 -4.123381 -0.000005 -0.000007 2.176141 79.095708 8.769994 -5.257510 31.066958 -7.323139 0.684747 -66.257971 179.311754 -2.839301 -0.000006 -0.000004 -1.423050 -74.831826 -2.002411 1.659769 -0.000000 -0.000002 -2.289121 80.038841 -7.286419 0.284858 29.962595 7.334452 -0.575198 
53.145500 -1.286463 73.979187 10.876930 2.633336 1.520260 1.370801 -0.028244 -0.617554 6.744090 -0.082798 -1.247599 8.389011 -0.097736 -1.246527 -29.189418 -3.414798 -0.533967 13.521980 -0.867664 1.172390 -7.105409 -74.382953 -9.514831 -78.632881 -132.745532 -54.325272 0.000003 -0.000003 -0.000008 0.009543 -0.570412 -1.441145 -0.000007 -0.000016 -3.062470 -5.000125 -8.000097 0.000008 -22.462757 60.303248 26.527019 -60.561272 137.694783 42.288478 0.000002 0.000001 0.000004 -0.027835 -3.631880 0.859715 0.000003 0.000008 3.075790 -5.000143 7.999920 -0.000025 -65.048017 176.756498 6.952748 179.999991 0.000005 -1.789996 106.743146 -1.031705 -4.128172 -0.000006 -0.000007 2.161051 79.087963 8.767566 -5.244542 31.107482 -7.322750 0.689625 -65.953912 179.290826 -2.803572 -0.000002 -0.000004 -1.418280 -74.538749 -1.939648 1.688521 -0.000000 -0.000003 -2.275559 80.062050 -7.288879 0.299234 29.942593 7.334633 -0.572607 
